<?xml version="1.0" encoding="UTF-8"?>
<svg id="Ebene_1" data-name="Ebene 1" xmlns="http://www.w3.org/2000/svg" viewBox="0 0 1024 1024">
  <defs>
    <style>
      .cls-1 {
        fill: #ff522f;
      }
    </style>
  </defs>
  <path class="cls-1" d="m381,773H90.78l-5.1-23.68c-5.59-25.93-19.12-116.72,41.43-196.47,39.48-52,91.06-73.44,118.29-81.6,83.26-24.93,153.3,4.4,179.54,18.17,14.67,7.7,20.33,25.83,12.63,40.5-7.7,14.67-25.83,20.33-40.5,12.63-19.74-10.35-72.34-32.43-134.46-13.83-20.23,6.06-58.52,21.96-87.71,60.4-33.55,44.18-36.43,93.46-33.97,123.86h240.08c16.57,0,30,13.43,30,30s-13.43,30-30,30Zm494-29.99c0-16.57-13.43-30-30-30h-236.51c1.13-54.31,14.59-94.01,40.14-118.22,23.35-22.12,52.55-27.54,86.36-33.81,39.56-7.34,84.39-15.65,121.57-54.12,34.58-35.78,52.22-86.84,52.43-151.75l.1-30.1h-70.59c-56.58-34.21-145.7-72.93-260.22-74-59.97-.56-119.18,9.43-176.12,29.68-35.64,12.68-69.66,29.14-101.13,48.92l-47.15,29.64,50.69,23.07c58.17,26.47,119.53,43.14,182.39,49.54,38.75,3.95,78.13,3.95,117.07,0,16.48-1.67,28.49-16.39,26.82-32.87-1.67-16.48-16.38-28.49-32.87-26.82-34.91,3.54-70.21,3.54-104.93,0-35.29-3.6-70.08-10.81-103.97-21.53,46.96-20.87,111.63-40.35,188.65-39.62,105.65.99,186.82,38.28,236.31,69.4l7.32,4.6h25.89c-4.12,34.26-15.44,61.15-33.81,80.15-23.85,24.67-54.21,30.3-89.37,36.82-37.71,6.99-80.46,14.92-116.69,49.25-43.14,40.87-62.77,105.91-58.33,193.3l1.45,28.48h294.52c16.57,0,30-13.43,30-30Zm-150-371.01c-16.57,0-30,13.43-30,30s13.43,30,30,30,30-13.43,30-30-13.43-30-30-30Z"/>
</svg>